<?xml version="1.0" encoding="UTF-8" standalone="no"?>
<!-- Created with Inkscape (http://www.inkscape.org/) -->

<svg
   width="126.13047mm"
   height="174.00537mm"
   viewBox="0 0 126.13047 174.00537"
   version="1.1"
   id="svg1"
   xml:space="preserve"
   inkscape:version="1.4.3 (0d15f75, 2025-12-25)"
   sodipodi:docname="LogoVectorizado.svg"
   xmlns:inkscape="http://www.inkscape.org/namespaces/inkscape"
   xmlns:sodipodi="http://sodipodi.sourceforge.net/DTD/sodipodi-0.dtd"
   xmlns="http://www.w3.org/2000/svg"
   xmlns:svg="http://www.w3.org/2000/svg"><sodipodi:namedview
     id="namedview1"
     pagecolor="#505050"
     bordercolor="#eeeeee"
     borderopacity="1"
     inkscape:showpageshadow="0"
     inkscape:pageopacity="0"
     inkscape:pagecheckerboard="0"
     inkscape:deskcolor="#505050"
     inkscape:document-units="mm"
     inkscape:zoom="1.0859962"
     inkscape:cx="192.91044"
     inkscape:cy="347.14671"
     inkscape:window-width="1920"
     inkscape:window-height="1057"
     inkscape:window-x="-8"
     inkscape:window-y="-8"
     inkscape:window-maximized="1"
     inkscape:current-layer="layer1" /><defs
     id="defs1" /><g
     inkscape:label="Capa 1"
     inkscape:groupmode="layer"
     id="layer1"
     transform="translate(-34.215557,-46.754053)"><path
       id="path2"
       style="fill:#000000"
       d="m 100.96607,46.755193 c -2.193422,-0.0431 -4.261362,1.13528 -4.264862,3.573942 -8.2e-4,0.534608 0.10568,0.439749 0.59428,-0.529167 1.81752,-3.604258 7.264042,-2.910539 7.789712,0.992188 0.135,1.002268 0.13488,1.002483 -1.74253,0.914673 -2.88074,-0.134737 -7.171662,2.022684 -7.171662,3.605981 0,0.102209 -0.99075,0.186035 -2.20193,0.186035 -3.11963,0 -5.41815,1.713085 -5.98258,4.458643 -0.14104,0.686087 -0.26387,0.758678 -1.3534,0.802018 -1.5463,0.06151 -2.62861,0.834915 -3.44889,2.464966 -0.35148,0.69844 -0.6593,1.310417 -0.6842,1.359607 -0.0249,0.04919 -0.40469,-0.175908 -0.84335,-0.500228 -5.13283,-3.794864 -10.32422,3.762063 -7.32566,10.663432 0.17159,0.39493 0.0536,0.463021 -0.80201,0.463021 -3.12171,0 -6.4061,3.833389 -6.15002,7.178373 0.0784,1.024011 0.0272,1.124087 -0.67127,1.315165 -1.20238,0.328953 -1.76013,0.993676 -1.73323,2.064473 0.0117,0.468159 0.0175,0.705955 0.0491,0.728121 l 5.2e-4,5.17e-4 h 5.2e-4 l 5.1e-4,5.17e-4 h 5.2e-4 c 5.2e-4,1.89e-4 0.002,4.36e-4 0.003,5.17e-4 2.7e-4,1.3e-5 0.001,1.3e-5 0.002,0 h 5.1e-4 c 0.0341,-0.0081 0.095,-0.214273 0.20826,-0.605131 0.31223,-1.076891 0.7306,-1.398041 2.13165,-1.636076 1.15269,-0.19584 1.15245,-0.196036 1.29915,-2.174028 0.26589,-3.585174 2.28433,-5.814115 5.26428,-5.814115 1.67,0 1.69276,0.337477 0.0791,1.162203 -3.07214,1.570059 -4.91854,5.401301 -4.01474,8.329724 0.073,0.236528 -0.29637,0.503484 -1.05575,0.763778 -3.23737,1.109681 -4.734,4.652388 -3.38016,8.000545 0.11533,0.285202 -0.22723,0.582997 -1.21749,1.058333 -1.59706,0.766615 -2.56884,2.038299 -2.56884,3.362069 0,1.114621 0.38567,0.928676 0.80667,-0.389124 0.6331,-1.98166 3.0435,-3.598191 3.80752,-2.553332 0.30215,0.413223 0.24542,0.540742 -0.45579,1.018542 -3.8562,2.62761 -3.17466,10.924765 0.83354,10.146665 0.73256,-0.1422 0.58841,-0.67932 -0.33589,-1.25057 -3.06006,-1.89123 -2.86424,-6.141701 0.37879,-8.222751 1.534,-0.98436 1.5671,-1.134804 0.55035,-2.522326 -2.34339,-3.197935 -0.68071,-7.791256 2.8205,-7.791256 1.08383,0 1.49201,-0.611958 1.01854,-1.527555 -1.37316,-2.655395 0.5829,-6.630434 3.94963,-8.025867 1.42258,-0.589625 1.45651,-0.627752 1.25419,-1.413351 -1.20187,-4.666776 1.90257,-9.543943 5.75004,-9.033557 1.24379,0.164994 1.24397,0.164891 1.38441,-1.383895 0.28335,-3.124855 2.62558,-5.278497 4.19561,-3.857645 0.57762,0.522739 1.02939,0.279764 1.02939,-0.553455 0,-3.331353 3.5121,-5.862234 6.81871,-4.913912 0.82598,0.23689 0.88347,0.203793 1.39423,-0.797367 1.34635,-2.639076 5.845482,-4.173488 8.290962,-2.827734 0.30919,0.170152 0.79237,0.347621 1.07384,0.394291 1.1722,0.194376 2.35612,1.434448 4.00027,4.189925 0.24753,0.414839 0.47605,0.273258 2.02779,-1.255737 4.46676,-4.401276 10.89675,-4.159325 12.95218,0.487308 0.27967,0.632234 0.54814,1.149801 0.59634,1.149801 0.0482,0 0.51473,-0.178593 1.03715,-0.396875 2.55246,-1.066486 5.07335,-0.07893 5.44049,2.131653 0.17326,1.043181 0.17326,1.043294 1.4149,0.956014 2.34798,-0.165057 3.36938,2.464667 2.14561,5.523177 -0.59875,1.496422 -0.24462,1.805255 1.36477,1.190625 6.88802,-2.630559 11.28421,4.409219 6.81147,10.907344 -1.06912,1.553249 -1.04789,1.611688 0.83975,2.307353 4.36599,1.609028 6.2139,6.482292 4.04885,10.677901 -0.5936,1.150416 -0.59372,1.150416 0.0615,1.5875 3.70204,2.469608 4.443,5.681929 1.91823,8.317841 -0.66286,0.69204 -0.0154,1.9702 1.02888,2.0314 0.39576,0.0232 1.52479,2.09441 1.68362,3.0887 0.37471,2.34569 -0.63406,4.17 -2.89802,5.24102 -1.43576,0.67922 -1.43555,0.67911 -0.78961,2.06654 1.52159,3.26823 0.2778,5.75011 -2.88303,5.75211 -1.09152,8.4e-4 -1.25972,0.0675 -1.1157,0.44286 1.6231,4.22973 -0.31067,7.98652 -3.95996,7.69359 -1.63112,-0.13093 -1.72172,-0.10728 -1.87017,0.48421 -0.17296,0.68916 -0.89298,1.026 -1.66708,0.78031 -0.40264,-0.1278 -0.56816,0.0305 -0.81494,0.77825 -0.4331,1.31231 -1.02247,1.56126 -2.23397,0.94361 -0.98039,-0.49984 -0.98009,-0.50034 -1.66967,0.64131 -1.18599,1.96348 -2.46982,2.39474 -4.45192,1.49448 -1.07682,-0.48908 -1.07683,-0.48901 -1.80196,0.80098 -1.19599,2.12763 -3.12132,3.12828 -4.17804,2.17196 -0.45465,-0.41149 -0.48369,-0.40295 -0.48369,0.13901 0,1.1612 -2.52767,1.47646 -3.98167,0.49661 -1.4379,-0.969 -1.90617,-2.03456 -2.09083,-4.7594 -0.007,-0.10796 -0.49044,-0.005 -1.07384,0.2279 -4.66249,1.86555 -7.50409,-3.19219 -5.5919,-9.9534 0.71087,-2.51354 0.71076,-2.51354 2.99465,-3.43958 4.36933,-1.77161 7.77515,-4.2374 10.27224,-7.43624 1.31398,-1.68325 1.58753,-1.84877 1.58853,-0.96428 0.002,0.95921 0.91871,2.19589 2.48822,3.35535 1.74863,1.29177 2.94645,4.2479 1.72238,4.2509 -0.0848,2.2e-4 -0.15452,0.17911 -0.15452,0.39739 0,0.61867 0.61141,0.46765 1.21543,-0.30024 1.24394,-1.58141 0.60848,-3.30635 -1.89084,-5.12992 -2.59519,-1.89352 -3.40524,-4.90405 -1.90686,-7.08742 l 5.2e-4,-5.2e-4 c 0.0404,-0.0417 0.69924,0.10311 1.47278,0.32453 0.99254,0.28409 1.71065,0.33779 2.39417,0.17932 5.71181,-1.32419 7.30913,-10.854984 2.04173,-12.181687 -2.06966,-0.521286 -6.1288,-2.629963 -5.95157,-3.091801 1.05519,-2.749804 -0.002,-4.5745 -2.92437,-5.048788 -0.81954,-0.132933 -0.92058,-0.231974 -0.81339,-0.792716 0.0993,-0.519517 -0.0754,-0.765689 -0.92294,-1.300696 -1.36026,-0.858693 -1.83062,-1.961679 -1.50843,-3.538802 0.60219,-2.947534 0.60427,-2.83242 -0.0615,-3.250964 -0.51111,-0.321322 -0.94023,-0.34422 -2.34507,-0.125574 -3.84907,0.599065 -5.37467,-1.43267 -4.44728,-5.922636 0.28443,-1.377081 0.26713,-1.579503 -0.17363,-2.06654 -1.39261,-1.538818 -3.76218,0.0934 -3.44837,2.375048 0.16174,1.176037 0.1136,1.306952 -0.90744,2.48667 -1.27078,1.468277 -1.26085,1.398212 -0.41599,3.065446 1.16299,2.295065 0.51836,4.461093 -1.45625,4.894792 -1.14059,0.250516 -1.45786,-0.08181 -0.66972,-0.701766 0.88495,-0.696102 0.84603,-1.236501 -0.18914,-2.602942 -1.98327,-2.617956 -1.9574,-3.353825 0.20154,-5.643583 1.69827,-1.801163 1.80592,-2.423297 0.76274,-4.418335 -0.82282,-1.573617 -0.46354,-1.542681 -3.0148,-0.259933 -2.71874,1.366942 -3.10478,1.92445 -2.64945,3.822506 0.47969,1.999569 0.23225,2.671789 -1.34204,3.650423 -1.326782,0.824768 -1.326812,0.824935 -1.154962,2.200383 0.23267,1.862211 -0.36369,3.013271 -1.56683,3.023071 -0.41306,0.0034 -0.44017,-0.06255 -0.16227,-0.397392 0.23712,-0.285742 0.2803,-0.877303 0.14883,-2.05052 -0.27991,-2.497992 -0.27017,-2.534187 1.04335,-3.757394 2.329302,-2.16915 1.38394,-3.333519 -1.80868,-2.227771 -2.25104,0.779635 -2.8267,1.293083 -2.8267,2.52026 0,2.367858 -1.33351,3.535701 -4.03799,3.535701 -2.13227,0 -2.84117,0.540643 -2.84117,2.167827 0,2.02108 -0.88618,2.770175 -3.35381,2.835485 -3.98898,0.105581 -4.085,0.289676 -3.89071,7.432105 0.17781,6.536458 0.54725,8.116716 2.25877,9.662973 1.06046,0.95804 1.06775,0.97789 1.15445,3.12488 0.28378,7.02422 5.1106,12.73203 13.02557,15.40267 2.18281,0.73652 2.18262,0.73621 2.18177,2.08153 -10e-4,1.89251 -0.75207,6.06792 -1.13481,6.31021 -0.17574,0.11124 -1.90393,1.18281 -3.84059,2.38125 -1.93666,1.19845 -4.37744,2.86161 -5.42396,3.6959 -2.69613,2.14937 -4.41627,1.33692 -4.41627,-2.08566 0,-0.75956 -0.26181,-0.77704 -1.38286,-0.0935 -2.3992,1.46279 -4.56298,-0.1429 -4.58318,-3.40083 -0.0126,-2.02281 -0.0127,-2.02233 -1.24334,-2.02933 -2.33202,-0.0139 -3.10142,-1.39107 -1.91151,-3.4215 1.81341,-3.09435 2.74213,-10.57422 1.43557,-11.5626 -3.04559,-2.30392 -13.74593,-0.97081 -13.74593,1.71256 0,1.10527 -1.72323,1.81037 -2.7187,1.11311 -0.74605,-0.52303 -2.82117,-0.51722 -3.5729,0.009 -0.7909,0.55397 -0.74606,0.24182 0.33848,-2.37815 1.50304,-3.63096 0.85206,-5.61191 -1.30742,-3.97857 -0.68011,0.51439 -0.94154,0.48996 -0.94154,-0.0879 0,-2.08036 -2.22794,-1.17542 -3.66541,1.4888 -0.54128,1.00318 -0.80692,1.28913 -0.92087,0.99218 -0.90862,-2.36781 -2.56483,0.98209 -3.73621,7.55613 -0.36818,2.06628 -1.67891,7.27946 -2.91248,11.58431 -2.94834,10.28899 -3.71244,14.12231 -4.01165,20.13003 -0.27189,5.45952 0.65471,10.42553 2.42001,12.97285 0.65905,0.95101 0.65885,0.95096 -0.43201,3.44786 -7.86475,18.00183 -8.56523,38.68949 -1.41129,41.67859 5.61066,2.34429 8.88032,-3.0106 7.52616,-12.32638 -0.83403,-5.73763 -0.60914,-7.97334 0.87385,-8.68319 2.4155,-1.15622 2.97083,1.51109 2.01228,9.66504 -1.11973,9.52511 -0.18894,13.32546 3.79356,15.48846 v 5.2e-4 c 8.44969,4.58925 10.39182,-12.24336 4.54805,-39.4162 -3.24356,-15.0822 -8.50203,-19.47574 -14.2968,-11.94501 -1.32092,1.71664 -1.45814,1.72963 -2.23139,0.21394 -2.86449,-5.61486 -2.02821,-17.47151 2.2195,-31.46887 1.25798,-4.1454 2.15272,-7.82231 2.67219,-10.98021 0.79822,-4.85245 1.72514,-7.65259 2.33216,-7.04557 0.21202,0.21201 0.16084,1.12308 -0.18811,3.34812 -0.48608,3.09945 -0.42538,4.30615 0.11059,2.20245 1.48964,-5.84694 3.47475,-9.89692 4.25504,-8.68113 0.34136,0.53188 0.0886,1.54083 -0.94671,3.78169 -0.88674,1.91923 -1.71515,4.90893 -1.71515,6.19032 0,1.04529 0.18865,0.65843 0.93638,-1.92185 1.03056,-3.55624 3.41001,-7.53132 4.50825,-7.53132 0.64833,0 0.42451,0.91561 -1.20922,4.94905 -1.51023,3.72852 -1.89907,5.41159 -1.33222,5.76192 0.14134,0.0874 0.60102,-0.6004 1.02164,-1.52807 1.07359,-2.36774 3.32355,-3.54637 4.45813,-2.50217 0.71726,0.66012 1.04645,0.92877 1.34452,1.49661 0.60923,1.16063 1.06983,2.00218 0.20501,2.65828 -0.86306,0.65476 -1.61824,-0.51523 -1.85546,-0.68121 -2.60278,-1.82111 -5.41462,3.38726 -3.28817,6.09059 0.80475,1.02308 1.85018,0.91698 3.22099,-0.3266 1.3217,-1.19905 1.90592,-1.4557 2.28203,-1.00252 0.87691,1.05662 -1.29201,3.88989 -4.19664,5.48235 -5.15596,2.82675 -4.97994,16.71447 0.24598,19.4169 0.79161,0.40936 0.69689,-0.0914 1.50275,7.94215 0.31393,3.12944 0.56459,3.26679 3.36672,1.84692 3.40747,-1.7266 6.31675,-1.1778 9.31519,1.757 1.34354,1.31502 1.34389,1.31491 1.6769,0.17828 1.76518,-6.02486 9.19518,-8.30632 13.29687,-4.08295 1.13416,1.1678 1.07207,1.166 3.13779,0.10232 2.51129,-1.29312 7.04254,-1.24906 11.00553,0.10748 2.679342,0.91715 2.679352,0.91742 3.116612,-0.46974 3.37524,-10.70747 19.23394,-8.49072 21.90047,3.06132 0.35856,1.55335 0.40554,1.56894 1.85725,0.60823 0.91473,-0.60535 1.44792,-0.74357 3.17448,-0.82217 2.07523,-0.0944 2.07557,-0.0945 1.91255,-1.32344 -0.1579,-1.19031 0.11343,-2.29179 1.22318,-4.96559 0.38603,-0.9301 0.58365,-0.38262 -2.28255,-6.31641 -1.00999,-2.09094 -2.37556,-4.38276 -3.48248,-5.8446 -1.82087,-2.40471 -1.82055,-2.40476 -0.94826,-2.97656 0.47976,-0.31449 1.19075,-1.05315 1.58027,-1.64176 0.50438,-0.76217 0.82894,-1.01945 1.12809,-0.894 0.86205,0.36149 2.95172,0.43345 3.69125,0.12712 0.68433,-0.28345 0.83935,-0.24575 1.49707,0.3638 2.85934,2.64995 7.38168,0.31731 7.32358,-3.77754 -0.0212,-1.49623 -0.0211,-1.49604 1.39372,-1.49604 3.27073,0 5.49654,-3.89073 4.57904,-8.00364 -0.17678,-0.7925 -0.13953,-0.8599 0.47181,-0.8599 2.68343,0 4.56619,-2.70447 3.84783,-5.52679 -0.17085,-0.67124 -0.33642,-1.35091 -0.36742,-1.5105 -0.031,-0.15959 0.47873,-0.70101 1.13274,-1.20303 3.07798,-2.36268 3.44902,-6.23475 0.86248,-8.99997 -1.17735,-1.25869 -1.17717,-1.25865 -0.65215,-1.99729 2.05954,-2.897552 0.62704,-7.515579 -2.67271,-8.615497 -0.21637,-0.07212 -0.1088,-0.542128 0.34779,-1.518254 1.91814,-4.100711 0.0827,-8.831926 -4.18425,-10.785388 -1.69832,-0.777518 -1.4666,-1.108044 0.78135,-1.114144 3.63905,-0.0099 6.6717,4.511467 5.27978,7.871871 -0.6609,1.595531 0.78458,4.36705 1.76579,3.38584 0.1668,-0.166794 -0.0295,-0.350495 -0.99167,-0.929142 -0.33802,-0.203296 -0.34287,-0.390794 -0.0346,-1.381311 1.58811,-5.103707 -1.21904,-9.745142 -5.89421,-9.745142 -1.44658,0 -1.4469,-2.51e-4 -0.60617,-1.630391 2.35114,-4.558783 -0.28257,-9.709912 -5.46168,-10.681519 -1.08699,-0.203921 -1.10965,-0.249569 -0.57671,-1.18184 0.4644,-0.81234 0.50943,-2.427837 0.0796,-2.857706 -0.51886,-0.519306 -0.628,-0.373342 -0.52503,0.706416 0.13973,1.465217 -0.81502,3.093671 -2.07171,3.533635 -0.33648,0.117798 -0.39987,-0.203591 -0.39687,-2.010213 0.005,-2.93546 -1.00153,-4.399446 -3.06545,-4.458126 -0.67993,-0.01933 -0.8616,-0.194668 -1.33118,-1.286227 -0.81906,-1.903974 -3.65493,-2.856926 -5.98413,-2.01073 -0.48316,0.175534 -0.64033,0.100881 -0.83509,-0.396875 -1.21364,-3.101752 -6.66488,-4.712949 -10.82363,-3.199288 -1.13086,0.411602 0.68965,-1.055767 2.28306,-1.840197 2.993,-1.473448 6.28909,-1.034278 7.63313,1.016992 0.48945,0.746999 0.88211,0.818766 0.88211,0.16123 0,-4.58212 -7.746,-3.752335 -12.79198,1.370459 -2.36574,2.401753 -2.63124,2.59762 -2.88303,2.129069 -0.46925,-0.873218 -2.59423,-2.735204 -3.49177,-3.059761 -0.76681,-0.277282 -0.88331,-0.466262 -1.18236,-1.914095 -0.50577,-2.448673 -2.82488,-3.71326 -5.0183,-3.75636 z M 79.051648,63.951559 c 0.75661,-0.0149 1.53978,0.208994 2.30321,0.726571 1.39874,0.9483 1.37457,1.661597 -0.0568,1.693437 -2.21776,0.04934 -4.69415,1.980665 -5.60793,4.373376 -0.2463,0.64493 -0.53988,1.764214 -0.65215,2.487703 -0.20412,1.315434 -0.20423,1.315646 -0.64802,-0.121439 -1.40448,-4.547963 1.38308,-9.09507 4.66173,-9.159648 z m 26.655732,4.188892 c 0.28889,-0.01062 0.39647,0.228431 0.64338,0.7059 0.61429,1.187895 0.51923,1.480119 -1.0356,3.171383 -2.14263,2.330642 -2.3064,4.38216 -0.5085,6.37222 1.35747,1.502552 1.09176,2.221934 -0.62838,1.701189 -0.88214,-0.267055 -1.0803,0.541954 -0.32866,1.342037 3.00402,3.197636 7.88155,-0.752649 5.83323,-4.72426 -0.79881,-1.548868 -0.71038,-2.82205 0.19586,-2.82205 0.58071,0 1.16501,-1.681455 1.00458,-2.89078 -0.15221,-1.147425 -0.11088,-1.279694 0.50385,-1.608687 0.99023,-0.529964 1.30248,-0.0828 0.92397,1.322917 -1.24018,4.605643 0.6853,7.342283 4.97748,7.074503 2.2265,-0.138906 2.22642,-0.139 2.01641,0.82579 -0.6215,2.855228 -0.11151,4.643928 1.59422,5.589323 1.75542,0.972939 0.99921,1.052721 -5.05499,0.5333 -8.29776,-0.711906 -11.14529,0.220002 -12.08712,3.956865 -0.3984,1.580714 -0.52424,1.690142 -1.50016,1.302246 -0.36381,-0.144595 -1.31631,-0.231597 -2.11667,-0.193787 -1.455182,0.06874 -1.455522,0.06873 -1.523422,-0.976167 -0.13347,-2.054851 -0.35513,-2.727951 -1.15859,-3.513481 -1.23768,-1.210062 -4.02906,-1.952856 -8.52661,-2.269629 -2.09383,-0.147473 -2.26615,-0.240756 -1.66656,-0.903304 0.24165,-0.267012 0.43976,-0.811454 0.43976,-1.209745 0,-1.425284 0.39354,-1.747697 2.13424,-1.747697 2.86281,0 4.60975,-1.275091 4.91133,-3.584278 0.21578,-1.652264 0.33191,-1.7909 2.1022,-2.509407 1.92867,-0.78279 2.09714,-0.483585 0.53485,0.950846 -1.3901,1.276333 -1.40884,1.382311 -0.79375,4.549593 0.19984,1.029055 -0.22066,1.651579 -1.11621,1.651579 -0.78899,0 -0.80627,0.375302 -0.0413,0.911056 2.27853,1.595942 5.153842,-0.920375 4.37389,-3.827674 -0.15769,-0.587802 -0.042,-0.739548 0.971002,-1.276924 1.56003,-0.827594 2.14078,-1.943778 1.89342,-3.638538 -0.38769,-2.656282 -0.43126,-2.539671 1.30225,-3.471106 0.97198,-0.522257 1.44175,-0.782618 1.73064,-0.793233 z M 92.119068,79.997608 c -0.58878,-0.0094 -1.33115,0.14544 -2.04381,0.509013 -1.04459,0.53291 -1.22517,0.781822 -0.84904,1.168921 0.32586,0.335358 3.27741,-0.03885 3.70882,-0.470256 0.72017,-0.720178 0.16531,-1.191997 -0.81597,-1.207678 z m 21.517032,0.768429 c -1.81356,0 -1.11146,1.470651 1.05626,2.212785 1.4627,0.500764 1.26221,0.483854 1.87276,0.157096 1.09644,-0.586797 -1.10744,-2.369881 -2.92902,-2.369881 z M 87.452168,85.26137 c 1.95894,-0.01537 6.03606,0.503467 7.30756,1.05885 3.4499,1.506896 1.32914,11.661738 -2.73833,13.112378 -1.88772,0.673242 -7.06032,0.236498 -7.60316,-0.641822 -0.0757,-0.12249 0.14962,-1.69774 0.50075,-3.501078 0.52376,-2.689947 1.46296,-8.992003 1.46296,-9.816455 0,-0.142277 0.41724,-0.206752 1.07022,-0.211873 z m -3.05356,0.118855 c 1.15406,-0.0455 1.02072,1.616729 -0.56948,10.533208 -0.45585,2.556025 -0.62319,2.743859 -1.25677,1.408699 -2.02145,-4.259901 -1.07363,-11.414447 1.5782,-11.911934 0.0883,-0.01657 0.17111,-0.02694 0.24805,-0.02997 z m 26.260412,1.551844 c 4.4992,-0.09942 11.59634,0.953601 12.41733,2.206583 1.59312,2.431413 -2.0384,12.256208 -4.81521,13.027108 -2.46783,0.68511 -7.77188,0.11195 -10.18336,-1.1007 -3.25798,-1.638324 -3.80496,-11.930071 -0.72347,-13.61416 0.59382,-0.324533 1.80498,-0.485692 3.30471,-0.518831 z m -23.606312,4.755782 c -0.14973,0.0036 -0.28768,0.171051 -0.35605,0.523482 -0.25428,1.310644 0.90249,3.367042 2.19883,3.909839 2.16777,0.90768 4.94917,-0.715926 5.56814,-3.250448 0.28896,-1.183236 -0.52269,-0.89963 -1.32034,0.461471 -1.66538,2.841746 -4.95973,2.372569 -5.55315,-0.79065 -0.10435,-0.556271 -0.33224,-0.858625 -0.53743,-0.853694 z m 12.78578,0.300757 c 0.344762,-0.01284 0.741782,0.03643 1.201482,0.142627 1.68722,0.389785 1.95883,0.859995 2.2412,3.875732 0.58252,6.221103 4.22452,9.088953 11.54349,9.091953 5.84599,0.002 7.77851,-1.60956 9.66401,-8.061008 1.03663,-3.546926 0.99716,-3.500903 2.49597,-2.928504 1.20456,0.460027 1.20473,0.460089 0.75396,1.223182 -0.56804,0.961612 -0.26869,1.306206 0.51469,0.592728 3.12412,-2.845355 6.83877,-0.436532 6.01617,3.901054 -0.76849,4.052208 -4.38826,6.121798 -7.14685,4.086568 -1.06344,-0.78458 -1.01552,-0.82628 -2.18126,1.89291 -2.63397,6.14395 -8.21798,10.60036 -15.35927,12.25765 -12.610332,2.9265 -25.541762,-4.80253 -25.577762,-15.28744 -0.004,-1.14069 -0.004,-1.14069 1.25315,-0.92604 2.57495,0.43978 6.4335,0.24077 7.86774,-0.40618 2.56293,-1.15609 3.31002,-2.335913 4.74751,-7.495145 0.36814,-1.321303 0.93149,-1.921558 1.96577,-1.960087 z m 17.825792,1.268656 c -0.27151,0.01262 -0.74444,0.485222 -1.27228,1.469678 -2.00537,3.740185 -6.06931,3.757857 -7.45897,0.03256 -0.54695,-1.466228 -0.94142,-1.687046 -1.07539,-0.602031 -0.19167,1.552434 0.8689,3.348568 2.46962,4.183208 2.4331,1.26866 5.96758,-0.312257 7.18302,-3.212724 0.51609,-1.231545 0.48167,-1.885917 0.154,-1.870687 z m 13.78107,3.685046 c -1.34425,0.04709 -3.01163,1.776018 -3.38843,3.60133 -0.23383,1.13274 0.18164,1.09853 0.73433,-0.0605 0.62731,-1.315479 2.48861,-0.56496 2.13113,0.85938 -0.12339,0.4916 -0.0721,0.62825 0.20257,0.53795 1.07731,-0.35421 0.28506,-2.858222 -0.90433,-2.858222 -0.77777,0 0.15744,-0.994385 1.18597,-1.260905 0.9173,-0.2377 1.08877,-0.693746 0.30282,-0.805636 -0.0863,-0.01228 -0.17445,-0.01658 -0.26406,-0.01344 z m -31.917952,0.120923 c -0.29955,-0.01043 -0.59529,0.02534 -0.86455,0.114205 -1.74695,0.57655 -2.20925,2.254432 -1.01286,3.676262 0.37674,0.44773 0.92484,0.81442 1.21802,0.81442 0.48002,0 0.45161,-0.0932 -0.28784,-0.93534 -1.65727,-1.887523 -0.13312,-3.557032 2.038642,-2.232942 1.01659,0.61981 1.51058,0.478991 1.0883,-0.310059 -0.34855,-0.651277 -1.28105,-1.095245 -2.179712,-1.126546 z m -30.58263,3.569287 c -0.007,-3.1e-4 -0.0145,3e-5 -0.0222,5.2e-4 -0.0692,0.004 -0.15791,0.0408 -0.26665,0.108 -0.93463,0.57763 -1.09498,3.15285 -0.28216,4.53048 0.30003,0.50853 0.54571,1.33454 0.54571,1.83554 0,0.62811 0.12153,0.91106 0.39171,0.91106 0.56607,0 0.80336,-1.27909 0.41392,-2.22984 -1.01616,-2.48079 -1.08506,-2.81921 -0.79375,-3.90105 0.22831,-0.84786 0.23795,-1.24502 0.0134,-1.25471 z m 29.58579,4.35271 c -1.24831,0.0807 -2.44481,0.91933 -2.9099,2.47168 -0.49727,1.65974 0.0377,3.72796 1.23713,4.78111 2.9194,2.56326 6.626502,-1.35906 4.892732,-5.17695 -0.6716,-1.4789 -1.971652,-2.15649 -3.219962,-2.07584 z m 1.715662,3.82664 c 1.17205,0 1.34908,1.10721 0.35708,2.23449 -0.813652,0.92461 -2.023992,1.12873 -2.828252,0.47749 -1.31048,-1.06117 0.19393,-2.71198 2.471172,-2.71198 z m -30.435352,1.60559 c 1.29704,-0.0149 2.57255,0.0893 3.60649,0.35501 2.73944,0.7039 2.90478,1.412 0.52917,2.26602 -2.24743,0.80794 -9.03734,0.56032 -10.47533,-0.38189 -1.63927,-1.07409 2.44854,-2.1943 6.33967,-2.23914 z m -8.14834,4.624 c 0.18735,4e-4 0.38649,0.33925 0.50384,1.09606 0.086,0.55478 0.32276,1.66132 0.52607,2.45928 0.28167,1.10554 0.29504,1.49806 0.0568,1.64951 -1.10477,0.70258 -1.37519,0.63166 -1.84047,-0.42003 -0.62283,-1.44441 0.22156,-2.80541 0.26195,-4.23419 0.13276,-0.51892 0.30361,-0.55063 0.49177,-0.55063 z m -4.86172,3.71812 c 1.82985,0 1.94843,0.13538 2.52921,1.06176 1.12233,1.7902 -0.062,1.99509 -0.99179,2.85499 -0.81562,0.7543 -1.87834,1.09584 -2.48166,0.78742 -0.9676,-0.49464 -1.13659,-2.27804 -0.0898,-3.83135 0.38482,-0.57104 0.71225,-0.86603 1.03405,-0.87282 z m 52.446932,0.7581 c 0.50387,0.006 0.28554,0.47217 -0.27596,2.27996 -0.51261,1.65041 -0.70389,2.87896 -0.73949,4.74131 -0.0481,2.51355 -0.048,2.51344 -0.96118,2.97605 -3.7228,1.88599 -9.265572,-0.19104 -8.541602,-3.20084 0.19778,-0.82224 0.43394,-2.63381 0.52504,-4.02559 0.16568,-2.53052 0.16565,-2.53058 3.766692,-2.41949 1.98058,0.0611 4.25618,-0.0101 5.05654,-0.15813 0.56283,-0.1041 0.94092,-0.19617 1.16996,-0.19327 z m -46.695862,2.50579 c 0.67523,0.01 1.56155,0.44983 2.29908,1.29294 1.71072,1.95561 4.39049,2.54614 6.86418,1.51257 0.68953,-0.2881 1.0643,-0.3362 1.1281,-0.14469 0.27912,0.83735 1.45834,1.82332 2.3642,1.97662 0.97571,0.16512 0.98842,0.18292 1.02732,1.46038 0.0956,3.14256 2.99481,5.29794 5.72834,4.25865 0.58986,-0.22426 0.66821,-0.15978 0.95033,0.78186 0.16911,0.56443 0.60403,1.37861 0.96635,1.8092 1.65055,1.96156 -12.60743,9.69207 -21.04833,11.41222 -3.3795,0.68869 -3.32653,0.69163 -5.6131,-0.3235 -4.85584,-2.15576 -5.05328,-14.2412 -0.27905,-17.07751 2.72152,-1.61683 4.54961,-3.9897 4.56561,-5.92573 0.005,-0.65152 0.37918,-0.98951 0.91468,-1.0294 0.043,-0.003 0.0873,-0.004 0.13229,-0.004 z m 77.736862,7.55096 c 0.0697,8.7e-4 0.12545,0.0205 0.16536,0.0605 0.77669,0.77669 -0.49451,3.80736 -1.96009,4.6731 -1.17535,0.6943 -3.6844,0.19472 -4.33875,-0.86403 -0.48525,-0.78515 0.73165,-1.79214 2.01693,-1.66864 1.18905,0.11426 1.34125,0.0578 2.14922,-0.79891 0.81408,-0.86318 1.59105,-1.40668 1.96733,-1.40199 z m -2.39469,2.29753 c -0.0423,0.007 -0.1205,0.18336 -0.2744,0.52968 -0.17199,0.387 -0.54905,0.97302 -0.83819,1.30225 -0.31676,0.3607 -0.36781,0.51222 -0.12868,0.38086 0.89319,-0.49066 1.32151,-1.05071 1.30121,-1.70016 -0.0109,-0.34868 -0.0163,-0.5203 -0.0599,-0.51263 z m -24.92148,19.14664 c -6.37475,0.006 -9.96393,5.18555 -5.94279,8.57622 6.40359,5.39959 8.33815,10.69627 7.58662,20.77185 -0.4555,6.10677 -0.33082,8.08729 0.63045,10.00715 2.26425,4.5222 7.84825,5.75594 11.28614,2.49338 1.77517,-1.68464 1.53822,1.5808 -0.30128,4.15272 -3.13651,4.38534 -6.87879,4.8885 -16.30185,2.19263 -8.23597,-2.35626 -12.810302,-0.81365 -14.595492,4.92218 -2.2353,7.18202 3.35844,14.99709 11.685082,16.32562 15.01729,2.39604 26.99069,-9.80262 28.9512,-29.49536 2.28489,-22.95107 1.21586,-29.75542 -4.78679,-30.46635 -5.32964,-0.63121 -6.993,3.29586 -5.379,12.69638 1.23879,7.21515 0.98234,9.98804 -0.93999,10.17612 -2.21065,0.2163 -3.07035,-4.23681 -2.21227,-11.45615 1.58695,-13.35159 -1.9113,-20.90339 -9.68003,-20.89639 z m 25.6651,0.75447 c -0.5073,-0.0149 -1.04778,0.0778 -1.61385,0.29404 -3.98789,1.52299 -3.21413,8.33851 0.94671,8.33851 1.09804,0 1.23966,0.52508 0.5948,2.2102 -0.37065,0.96848 -0.45767,1.5313 -0.28422,1.84123 0.65247,1.16591 2.2305,0.0812 3.43183,-2.35903 2.39542,-4.86579 0.47583,-10.22086 -3.07527,-10.32495 z m -57.471422,3.89434 c -0.1569,-0.008 -0.31678,-0.008 -0.48008,5.1e-4 -0.9677,0.051 -2.04813,0.39457 -3.25096,1.00821 -4.29189,2.18956 -4.20263,5.86223 0.45733,18.75855 1.16354,3.22007 1.37878,4.98136 0.64286,5.26376 -0.68094,0.2613 -1.34003,-0.78491 -2.09393,-3.32383 -4.15395,-13.98932 -8.90487,-19.89985 -13.89889,-17.29094 -3.31574,1.73216 -3.66044,5.27109 -1.57613,16.19695 2.62119,13.74015 3.11053,25.39023 1.34513,32.02905 -1.06306,3.99767 -0.0496,6.26771 3.35535,7.51737 3.03387,1.11347 6.39464,-0.36587 7.92148,-3.48661 1.59579,-3.26168 0.90301,-9.1049 -2.42465,-20.46025 -1.63601,-5.58273 -1.75662,-6.86831 -0.64544,-6.86831 0.63738,0 0.72144,0.20476 2.24069,5.45031 3.47975,12.01465 5.63681,15.45417 9.49192,15.13448 4.66045,-0.38648 5.58623,-3.94988 5.58623,-21.51083 0,-19.79049 -1.80712,-28.16458 -6.67091,-28.41842 z m 12.49174,1.45779 c -5.01539,-0.0302 -5.17599,0.42426 -3.90984,11.09545 0.65988,5.56143 0.72358,6.93716 0.74828,16.26205 0.0313,11.83413 0.0485,11.92551 2.36781,12.50622 2.18857,0.54797 6.11441,-0.15591 9.260422,-1.65985 18.32914,-8.76224 11.83145,-38.08156 -8.466672,-38.20387 z m 56.369172,2.83032 c -2.60273,-0.0129 -5.22863,1.1254 -7.18096,3.79305 -4.13093,5.64446 -3.19755,11.13187 2.91972,17.16226 4.71526,4.64829 6.50459,9.65729 3.44992,9.65729 -0.73718,0 -0.8444,-0.3064 -0.9896,-2.81843 -0.37863,-6.5505 -8.63268,-5.84331 -10.38645,0.88986 -1.91405,7.34853 1.88087,15.46072 8.14886,17.41961 14.6897,4.59088 19.9941,-16.37603 6.88743,-27.22417 -3.6978,-3.0606 -5.25934,-5.93932 -4.25555,-7.84604 0.83871,-1.59315 2.13895,-0.8438 1.88929,1.08882 -0.74832,5.79256 7.37888,6.39055 8.92607,0.65681 1.92942,-7.15025 -3.68272,-12.75071 -9.40873,-12.77906 z m -101.762272,10.2464 c 1.554,0.0211 2.79567,5.96918 1.25678,7.50807 -0.68481,0.68482 -0.89885,0.74079 -1.90118,0.49661 -2.00607,-0.48872 -1.89487,-6.11564 0.15451,-7.80934 0.16471,-0.13612 0.32914,-0.19752 0.48989,-0.19534 z m 50.6212,0.28887 c 0.0283,-0.001 0.0577,-9.9e-4 0.0879,0 0.17858,0.006 0.38964,0.0484 0.63717,0.11007 3.901772,0.97146 4.953692,8.80881 1.471232,10.96109 -2.310772,1.42813 -2.441882,1.18781 -2.808092,-5.15421 -0.27461,-4.75565 -0.26569,-5.88019 0.61184,-5.91695 z"
       sodipodi:nodetypes="ssssssssssssssssscccccssccssscsssssssssssssssssssssssssssssssssssssssssscssssssssssssccssscssssscsssssssssssssssssssssssssssssssssssscscsssssscssscsssssssssssssssccssssssssssssssssssssssssssssssssssssssssssssssssssssssssssssscsssscsscssssssssssssssssssssssssssssssssssssssssssssssssssscsssssssssssssssssssssssssssssssssssssssssssscssssssssccssssssssssssssssssssssssssssssscssssssssscsssssssssssssscsssssssssssssssssssssscscsssssscsssssssssssscssssscssssssssssssscscssssscssssssssssssssscssssssssssssssssssscssscccssccc" /></g></svg>
